<!--?xml version="1.0" standalone="no"?-->
              <svg id="sw-js-blob-svg" viewBox="0 0 100 100" xmlns="http://www.w3.org/2000/svg" version="1.1">
                    <defs> 
                        <linearGradient id="sw-gradient" x1="0" x2="1" y1="1" y2="0">
                            <stop id="stop1" stop-color="rgba(63.064, 55, 248, 1)" offset="0%"></stop>
                            <stop id="stop2" stop-color="rgba(99.075, 31, 251, 1)" offset="100%"></stop>
                        </linearGradient>
                    </defs>
                <path fill="url(#sw-gradient)" d="M26.6,-30.3C32.5,-26.7,34,-16.5,35.5,-6.5C37,3.5,38.5,13.3,34.5,19.6C30.5,25.9,20.9,28.6,11.9,31.3C2.8,34.1,-5.8,36.8,-12.7,34.4C-19.5,32.1,-24.7,24.7,-28.9,16.9C-33.2,9.2,-36.4,1.1,-35.5,-6.6C-34.6,-14.4,-29.5,-21.7,-22.9,-25.2C-16.3,-28.8,-8.1,-28.4,1.1,-29.7C10.3,-31,20.6,-33.9,26.6,-30.3Z" width="100%" height="100%" transform="translate(50 50)" stroke-width="0" style="transition: 0.3s;"></path>
              </svg>